<svg xmlns="http://www.w3.org/2000/svg" xmlns:xlink="http://www.w3.org/1999/xlink" viewBox="0 0 1024 1024"><defs><style>.cls-1{fill:none;}.cls-2{isolation:isolate;}.cls-3{fill:#70706f;}.cls-4{fill:#e85153;}.cls-5{fill:#e2caa7;}.cls-6{fill:#d6b88f;}.cls-7{fill:#f5e9d0;}.cls-8{fill:#eddaba;}.cls-9{fill:#fff;}.cls-10{fill:#42b0ab;}.cls-11{clip-path:url(#clip-path);}.cls-12{fill:#d5d5d5;}.cls-13{fill:#f6b27e;}.cls-14{fill:#f39e7c;}.cls-15{fill:#ee8673;}.cls-16{fill:#ec756b;}.cls-17{fill:#e85c62;}.cls-18{fill:#e8e7e7;}.cls-19{fill:#ffd800;}.cls-20{fill:#f9c600;}.cls-21{fill:#f7b600;}.cls-22{fill:#f3a300;}.cls-23{fill:#ef8e00;}.cls-24{fill:#b6c8e8;}.cls-25{fill:#9cc0e6;}.cls-26{fill:#80b7e4;}.cls-27{fill:#64aee0;}.cls-28{fill:#26a2db;}.cls-29{fill:#595957;}.cls-30{fill:#f0f0f0;}.cls-31{fill:#71706f;}.cls-32{fill:#adacac;}.cls-33{fill:#f0ca11;}.cls-34{fill:#ddb600;}.cls-35{fill:#818282;}.cls-36{fill:#eb8000;}.cls-37{fill:#0696d3;}.cls-38{fill:#0086b9;}.cls-39{fill:#00809f;}.cls-40{fill:#065269;}.cls-41{fill:#cd985c;}.cls-42{fill:#edc000;}.cls-43{fill:#dfa67b;}.cls-44{fill:#cccccb;}.cls-45{fill:#e75625;}.cls-46{fill:#bb8555;}.cls-47{fill:#1e1f1d;}.cls-48{fill:#d9dbdb;}.cls-49{fill:#b5b5b4;}.cls-50{fill:#e76347;}.cls-51{fill:#d54519;}.cls-52{fill:#eaaa20;}.cls-53{fill:#edbc1d;}.cls-54{fill:#e89823;}.cls-55{fill:#eec119;}.cls-56{fill:#ecb71e;}.cls-57{fill:#c4a279;}.cls-58{fill:#7dc9ec;}.cls-59{fill:#804e1f;}.cls-60{fill:#744925;}.cls-61{fill:#008b39;}.cls-62{fill:#007f37;}.cls-63{fill:#cfe7f0;opacity:0.17;}.cls-64{fill:#4b494a;}.cls-65{fill:#f1f1f1;}.cls-66{fill:#d5d6d6;}.cls-67{fill:#e96c06;}.cls-68{fill:#c5e3eb;}.cls-69{fill:#277181;}.cls-70{fill:#24606f;}.cls-71{fill:#1c515f;}.cls-72{fill:#bc181d;}.cls-73{opacity:0.4;mix-blend-mode:multiply;}.cls-74{fill:#595959;}</style><clipPath id="clip-path"><rect class="cls-1" x="195.43" y="332.51" width="209.82" height="209.82" transform="translate(-12.44 8.81) rotate(-1.65)"/></clipPath></defs><g class="cls-2"><g id="Layer_1" data-name="Layer 1"><path class="cls-3" d="M327.69,572.9a1518.53,1518.53,0,0,1,376.66-89.07A417.14,417.14,0,0,0,327.69,572.9Z"/><path class="cls-4" d="M573.6,780.45a.33.33,0,0,1-.27.42A1753.26,1753.26,0,0,0,162,893.71c-10,4.11-21.35-2.09-23.86-13L13.3,337.24A11.19,11.19,0,0,1,20.35,324c55.88-19.1,117.54-37.39,184.63-53.26a1982,1982,0,0,1,224.15-39.62.34.34,0,0,1,.36.26Q501.55,505.94,573.6,780.45Z"/><path class="cls-4" d="M573.59,780.42a.34.34,0,0,0,.43.27,1749.89,1749.89,0,0,1,419.32-78c10.8-.67,18.3-11.21,15.78-22.14l-125-544.3A11.2,11.2,0,0,0,872,127.46c-58.61,7.19-122.07,17.64-189.36,32.64a1979.41,1979.41,0,0,0-219,62.21.35.35,0,0,0-.21.39Q518.5,501.57,573.59,780.42Z"/><path class="cls-4" d="M573.84,781.43a1511.89,1511.89,0,0,0-408.38,92.3A9.37,9.37,0,0,1,153,867L30.73,334.84A13.56,13.56,0,0,1,39.63,319C95,300.33,155.87,282.46,222.05,266.81a2052.28,2052.28,0,0,1,224.35-40Z"/><path class="cls-4" d="M988.39,665.88a12.65,12.65,0,0,1-11.16,15.46,1390.3,1390.3,0,0,0-403.14,100h0l-.23.11L446.4,226.77l2-.7c2.75-1,5.51-1.94,8.3-2.89a1897,1897,0,0,1,399.58-91.55A9.58,9.58,0,0,1,866.74,139q1.14,5,2.31,10Q928.71,407.45,988.39,665.88Z"/><path class="cls-3" d="M452.18,258.4q35,134.93,67.43,278Q544.62,647,566,753.92"/><path class="cls-5" d="M569.32,760.37a.3.3,0,0,1-.25.38A1684.81,1684.81,0,0,0,187.3,864.89a16.32,16.32,0,0,1-22-11.5L53.41,366.46A10.16,10.16,0,0,1,60,354.55c51.89-17.53,109.13-34.37,171.38-49.09a1908.22,1908.22,0,0,1,207.91-37.12.31.31,0,0,1,.33.23Z"/><path class="cls-6" d="M569.32,760.37a.3.3,0,0,0,.39.23,1684,1684,0,0,1,388.95-72.93,16.32,16.32,0,0,0,14.78-20L861.57,180.78A10.17,10.17,0,0,0,850.41,173c-54.34,6.88-113.19,16.71-175.63,30.64a1905.33,1905.33,0,0,0-203.25,57.34.31.31,0,0,0-.2.35Q520.32,510.83,569.32,760.37Z"/><path class="cls-7" d="M569.41,760.7a1403,1403,0,0,0-378.92,85.64,8.7,8.7,0,0,1-11.56-6.2L65.48,346.32a12.57,12.57,0,0,1,8.25-14.74C125.06,314.3,181.59,297.72,243,283.2a1904.35,1904.35,0,0,1,208.17-37.15Z"/><path class="cls-8" d="M954.07,653.49a11.73,11.73,0,0,1-10.36,14.34A1290,1290,0,0,0,569.64,760.6h0l-.22.09L451.17,246l1.86-.64c2.56-.91,5.11-1.8,7.7-2.69a1761.77,1761.77,0,0,1,370.77-85,8.9,8.9,0,0,1,9.69,6.86q1.06,4.63,2.14,9.26Q898.68,413.69,954.07,653.49Z"/><path class="cls-6" d="M553.64,625.56c-.8,1.49-1.62,3-2.44,4.5s-1.52,2.75-2.29,4.12q-9.35,16.43-21.29,33.58a2.66,2.66,0,0,1-3.41.77,2.13,2.13,0,0,1-.7-3.13,418.58,418.58,0,0,0,23.62-37.85c.84-1.51,1.66-3,2.45-4.53.89-1.67,1.76-3.34,2.59-5,23.25-45.9,30-86.89,20.06-122.3-5.78-20.59-16-35.77-26-50.44-14.78-21.84-28.73-42.45-28.36-78.5.14-13,2.18-24.44,4-34.51,3.26-18.31,5.83-32.78-3.55-48.61-5.39-9.09-13.65-16.74-24.68-22.87A119.55,119.55,0,0,0,467,250.3a.36.36,0,0,1,0-.69c1.75-.61,5.58-1.89,5.58-1.89h0s16.55,5.19,27,11.09c2.24,1.26,15,9,23,22.54,10.18,17.16,7.34,33.06,4.07,51.48-1.77,9.89-3.77,21.12-3.9,33.8-.36,34.75,13.24,54.85,27.63,76.12,10.13,14.95,20.59,30.42,26.56,51.66C587.65,532.35,579.79,576.31,553.64,625.56Z"/><path class="cls-6" d="M430.12,615.91l-234.34,6.74-8.35-290.29,234.35-6.74,7.93,276Z"/><path class="cls-9" d="M423.28,609.39l-234.34,6.74-8.35-290.29,234.35-6.73,7.93,276Z"/><rect class="cls-10" x="195.43" y="332.51" width="209.82" height="209.82" transform="translate(-12.44 8.81) rotate(-1.65)"/><g class="cls-11"><path class="cls-12" d="M358.46,406.14l-4.5,7.91a2,2,0,0,0,.76,2.74l20.48,11.64a2,2,0,0,0,2.74-.76l4.49-7.91a2,2,0,0,0-.75-2.74L361.2,405.39A2,2,0,0,0,358.46,406.14Zm-1.19,4.56a.5.5,0,0,1,.67-.18.49.49,0,0,1,.19.67.5.5,0,0,1-.67.18A.49.49,0,0,1,357.27,410.7Z"/><rect class="cls-13" x="354.36" y="410.77" width="13.12" height="4" transform="translate(-176.26 522.7) rotate(-60.4)"/><rect class="cls-14" x="358.28" y="413" width="13.12" height="4" transform="translate(-176.21 527.23) rotate(-60.4)"/><rect class="cls-15" x="362.2" y="415.22" width="13.12" height="4" transform="translate(-176.16 531.77) rotate(-60.4)"/><rect class="cls-16" x="366.11" y="417.45" width="13.12" height="4" transform="translate(-176.12 536.3) rotate(-60.4)"/><rect class="cls-17" x="370.03" y="419.67" width="13.12" height="4" transform="translate(-176.07 540.83) rotate(-60.4)"/><path class="cls-18" d="M357,406.14l-1.88,8.9a2,2,0,0,0,1.55,2.38l23.05,4.87a2,2,0,0,0,2.38-1.55l1.88-8.9a2,2,0,0,0-1.55-2.38l-23-4.87A2,2,0,0,0,357,406.14Zm.26,4.7a.48.48,0,0,1,.58-.37.49.49,0,1,1-.2.95A.48.48,0,0,1,357.22,410.84Z"/><rect class="cls-19" x="354.76" y="409.71" width="13.12" height="4" transform="translate(-116.21 680.09) rotate(-78.07)"/><rect class="cls-20" x="359.17" y="410.64" width="13.12" height="4" transform="translate(-113.62 685.14) rotate(-78.07)"/><rect class="cls-21" x="363.58" y="411.57" width="13.12" height="4" transform="translate(-111.04 690.19) rotate(-78.07)"/><rect class="cls-22" x="367.99" y="412.51" width="13.12" height="4" transform="translate(-108.45 695.25) rotate(-78.07)"/><rect class="cls-23" x="372.4" y="413.44" width="13.12" height="4" transform="translate(-105.87 700.3) rotate(-78.07)"/><path class="cls-9" d="M355.2,406.77l1.62,9a2,2,0,0,0,2.33,1.62l23.18-4.19a2,2,0,0,0,1.62-2.34l-1.62-8.95a2,2,0,0,0-2.34-1.62l-23.17,4.2A2,2,0,0,0,355.2,406.77Zm2,4.26a.49.49,0,0,1,.4-.57.49.49,0,0,1,.56.4.49.49,0,1,1-1,.17Z"/><rect class="cls-24" x="354.78" y="408.28" width="13.12" height="4" transform="translate(21.99 838.93) rotate(-100.26)"/><rect class="cls-25" x="359.21" y="407.48" width="13.12" height="4" transform="translate(28 842.35) rotate(-100.26)"/><rect class="cls-26" x="363.64" y="406.68" width="13.12" height="4" transform="translate(34.02 845.77) rotate(-100.26)"/><rect class="cls-27" x="368.08" y="405.88" width="13.12" height="4" transform="translate(40.03 849.19) rotate(-100.26)"/><rect class="cls-28" x="372.51" y="405.07" width="13.12" height="4" transform="translate(46.04 852.6) rotate(-100.26)"/><path class="cls-29" d="M358,410.55l0,0,.06.07h0a3,3,0,0,1-.3.74l0,0h0a2,2,0,0,1-1.52,1.06h0a2,2,0,0,1-.57-.08,1.52,1.52,0,0,1-.57-.31,1.1,1.1,0,0,1-.23-.25,1.54,1.54,0,0,1,.84-2.4l.07.36a1.28,1.28,0,0,0-.72.59,1.2,1.2,0,0,0,.1,1.24l.12.13a1.12,1.12,0,0,0,.46.28,1.08,1.08,0,0,0,.45.07h0a1.55,1.55,0,0,0,1.2-.8h0a2.65,2.65,0,0,0,.36-.86h.05l.07,0Z"/><rect class="cls-30" x="239.91" y="484.11" width="3.36" height="8.75" rx="0.86" transform="matrix(0.82, -0.57, 0.57, 0.82, -234.37, 223.07)"/><path class="cls-31" d="M257.61,515.28l-7.48,4.83a1.48,1.48,0,0,1-2-.37q-9.66-13.11-19.31-26.21l11.26-7.27,18,26.87A1.54,1.54,0,0,1,257.61,515.28Z"/><path class="cls-32" d="M237.91,455.07a1.14,1.14,0,0,1-.23.15l-.22.14Z"/><path class="cls-33" d="M275.42,391.77l50.1,77.66-67.85,8.2-.18,0a10.31,10.31,0,0,0-4.27,1.57l-27.3,17.61c-3.51,2.26-8.49.8-11.13-3.28l-5.95-9.24c-2.64-4.09-1.93-9.24,1.59-11.51l27-17.44.22-.14a1.14,1.14,0,0,0,.23-.15,10.25,10.25,0,0,0,3-3.15l.27-.47Z"/><path class="cls-23" d="M234.76,457.1l15.5,24-24.34,15.7c-3.51,2.26-8.49.8-11.13-3.28l-5.95-9.24c-2.64-4.09-1.93-9.24,1.59-11.51Z"/><path class="cls-23" d="M300,382.73h4a2.15,2.15,0,0,1,2.15,2.15V473a2.16,2.16,0,0,1-2.16,2.16h-4a0,0,0,0,1,0,0V382.73A0,0,0,0,1,300,382.73Z" transform="translate(-184.14 232.79) rotate(-32.83)"/><path class="cls-34" d="M323.52,466.32l2,3.13-67.85,8.19-.18,0a10.4,10.4,0,0,0-4.28,1.57l-2.95,1.91-2-3.13,3-1.9a10,10,0,0,1,4.28-1.57l.17,0Z"/><path class="cls-35" d="M252.56,518.54l-2.43,1.56a1.47,1.47,0,0,1-2-.36q-9.64-13.11-19.31-26.21l2.44-1.57,19.3,26.21A1.48,1.48,0,0,0,252.56,518.54Z"/><path class="cls-36" d="M248.24,478l2,3.13-24.34,15.7c-3.51,2.26-8.49.8-11.13-3.28l-2-3.13c2.63,4.08,7.61,5.55,11.12,3.28Z"/><path class="cls-36" d="M327.27,460.84l2,3.13a2.64,2.64,0,0,1-.79,3.64l-2.93,1.89-2-3.13,2.93-1.89A2.63,2.63,0,0,0,327.27,460.84Z"/><path class="cls-29" d="M334.44,427.93l.11-.7c1.66.07,1.9-.15,1.71-1.16s-.46-2.36-.73-4l-5.4-.88c-.58,1.06-1.12,2-1.63,2.94-.82,1.53-.5,1.79,1.51,2.38l-.12.7-5.77-.95.11-.7c1.61.06,2-.05,3.28-2.15l7.32-12.28.82,0c.88,4.53,1.83,9.54,2.7,14.12.44,2.3.63,2.54,2.38,3l-.12.7Zm-.32-13.73c-1.15,2-2.37,4.16-3.45,6l4.68.76Z"/><path class="cls-29" d="M362.3,385.38a3.24,3.24,0,0,0-2.2,1.66,4.26,4.26,0,0,0-.1,3,4.06,4.06,0,0,0,1.71,2.55,3.57,3.57,0,0,0,2.84.29,4.38,4.38,0,0,0,1.39-.63,10.24,10.24,0,0,0,1-.83,2,2,0,0,1,.74.55,2.13,2.13,0,0,1,.46.9,1.76,1.76,0,0,1-.56,1.71,5.81,5.81,0,0,1-2.73,1.39,8.78,8.78,0,0,1-2.75.31,5.94,5.94,0,0,1-4.52-2.33,8.17,8.17,0,0,1-1.35-2.89,7.64,7.64,0,0,1-.27-3,6.14,6.14,0,0,1,2.56-4.35,7.69,7.69,0,0,1,2.44-1.13,6,6,0,0,1,3.15-.18,1.92,1.92,0,0,1,1.5,1.32,1.68,1.68,0,0,1,0,1,2.49,2.49,0,0,1-.45.8,6.72,6.72,0,0,0-1.33-.29A4,4,0,0,0,362.3,385.38Z"/><path class="cls-37" d="M346.43,394.54,312.87,401l.21,4.15,0,.17c.45,1.3.91,2.61,1.36,3.92L348,402.79c-.47-1.34-.93-2.67-1.39-4Z"/><path class="cls-38" d="M346.64,398.78l-33.55,6.49,0,.09c.45,1.3.91,2.61,1.36,3.92L348,402.79C347.56,401.45,347.1,400.12,346.64,398.78Z"/><path class="cls-39" d="M348,402.79l-1.6-8.24.21,4.23,1.39,4Z"/><path class="cls-40" d="M345.66,401.24a.08.08,0,0,0-.05.09h0l.63,1.79.16,0-.64-1.81A.08.08,0,0,0,345.66,401.24Z"/><path class="cls-40" d="M342.92,401.77a.08.08,0,0,0-.05.09h0l.63,1.79.16,0-.64-1.81A.09.09,0,0,0,342.92,401.77Z"/><path class="cls-40" d="M340.17,402.3s-.06.06-.05.09v0l.63,1.78.15,0-.63-1.81A.09.09,0,0,0,340.17,402.3Z"/><path class="cls-40" d="M337.46,403a.08.08,0,0,0,0,.09v0l.58,1.64.16,0-.59-1.67A.08.08,0,0,0,337.46,403Z"/><path class="cls-40" d="M334.72,403.51a.08.08,0,0,0-.05.09v0l.58,1.64.16,0-.59-1.67A.09.09,0,0,0,334.72,403.51Z"/><path class="cls-40" d="M332,404s-.06.06-.05.09v0l.58,1.64.15,0-.58-1.67A.09.09,0,0,0,332,404Z"/><path class="cls-40" d="M329.23,404.58a.07.07,0,0,0-.05.09h0l.58,1.64.16,0-.59-1.67A.07.07,0,0,0,329.23,404.58Z"/><path class="cls-40" d="M326.49,405.11a.07.07,0,0,0-.05.09h0l.58,1.64.16,0-.59-1.67A.07.07,0,0,0,326.49,405.11Z"/><path class="cls-40" d="M323.75,405.64a.09.09,0,0,0-.06.09h0l.58,1.65.15,0-.58-1.66C323.83,405.64,323.79,405.62,323.75,405.64Z"/><path class="cls-40" d="M321,406.17a.07.07,0,0,0-.05.09h0l.58,1.65.16,0-.59-1.67A.07.07,0,0,0,321,406.17Z"/><path class="cls-40" d="M318.26,406.7a.07.07,0,0,0-.05.09h0l.58,1.65.16,0-.59-1.67A.07.07,0,0,0,318.26,406.7Z"/><path class="cls-40" d="M315.52,407.23a.09.09,0,0,0-.06.09h0l.58,1.65.16,0-.59-1.67A.09.09,0,0,0,315.52,407.23Z"/><path class="cls-40" d="M344.66,402.59s0,0,0,0h0l.27.75H345l-.27-.77A0,0,0,0,0,344.66,402.59Z"/><path class="cls-40" d="M341.91,403.12a0,0,0,0,0,0,0h0l.27.75h.08l-.27-.77A0,0,0,0,0,341.91,403.12Z"/><path class="cls-40" d="M339.17,403.65s0,0,0,0h0l.26.76.08,0-.27-.77S339.19,403.64,339.17,403.65Z"/><path class="cls-40" d="M336.46,404.33s0,0,0,0h0l.22.61.08,0-.22-.62A0,0,0,0,0,336.46,404.33Z"/><path class="cls-40" d="M333.71,404.86s0,0,0,0h0l.22.61H334l-.22-.63A0,0,0,0,0,333.71,404.86Z"/><path class="cls-40" d="M331,405.39a0,0,0,0,0,0,.05h0l.21.61h.08l-.22-.63S331,405.38,331,405.39Z"/><path class="cls-40" d="M328.23,405.92a.05.05,0,0,0,0,.05h0l.22.61h.08l-.22-.63A0,0,0,0,0,328.23,405.92Z"/><path class="cls-40" d="M325.49,406.45a.05.05,0,0,0,0,.05h0l.22.61h.08l-.22-.62S325.51,406.44,325.49,406.45Z"/><path class="cls-40" d="M322.74,407a0,0,0,0,0,0,0h0l.21.62.08,0-.22-.62A0,0,0,0,0,322.74,407Z"/><path class="cls-40" d="M320,407.51a.05.05,0,0,0,0,.05h0l.22.62.08,0-.22-.62A.05.05,0,0,0,320,407.51Z"/><path class="cls-40" d="M317.26,408a.05.05,0,0,0,0,0h0l.22.61.08,0-.22-.62A.05.05,0,0,0,317.26,408Z"/><path class="cls-40" d="M318.66,399.92l-.08,0,0,.57h0s0,0,0,0a0,0,0,0,0,0,0Z"/><path class="cls-40" d="M344.79,394.86l-.16,0,.08,1.82h0a.1.1,0,0,0,.09.07.08.08,0,0,0,.07-.09Z"/><path class="cls-40" d="M342.05,395.39l-.16,0,.08,1.82h0a.08.08,0,0,0,.08.07.09.09,0,0,0,.08-.09Z"/><path class="cls-40" d="M339.31,395.92l-.16,0,.08,1.82h0a.08.08,0,0,0,.08.07.08.08,0,0,0,.08-.09Z"/><path class="cls-40" d="M336.54,396.46l-.16,0,.08,1.66v0s0,.06.08.06a.09.09,0,0,0,.08-.08Z"/><path class="cls-40" d="M333.8,397l-.16,0,.07,1.66v0s0,.06.08.06a.07.07,0,0,0,.07-.08Z"/><path class="cls-40" d="M331.06,397.52l-.16,0,.07,1.67h0a.08.08,0,0,0,.08.06.08.08,0,0,0,.08-.08Z"/><path class="cls-40" d="M328.31,398.05l-.15,0,.07,1.67h0s0,.07.08.06a.09.09,0,0,0,.08-.08Z"/><path class="cls-40" d="M325.57,398.58l-.16,0,.08,1.67s0,0,0,0a.06.06,0,0,0,.08.06.07.07,0,0,0,.07-.08Z"/><path class="cls-40" d="M322.83,399.11l-.16,0,.07,1.66h0a.1.1,0,0,0,.09.07.09.09,0,0,0,.07-.09Z"/><path class="cls-40" d="M320.09,399.65l-.16,0,.07,1.66h0a.08.08,0,0,0,.08.07.09.09,0,0,0,.08-.09Z"/><path class="cls-40" d="M317.34,400.18l-.16,0,.08,1.66h0a.08.08,0,0,0,.08.07.09.09,0,0,0,.08-.09Z"/><path class="cls-40" d="M314.6,400.71l-.16,0,.07,1.66h0a.1.1,0,0,0,.09.07.08.08,0,0,0,.07-.09Z"/><path class="cls-40" d="M343.37,395.14h-.08l0,.72h0a.05.05,0,0,0,.05,0s0,0,0,0Z"/><path class="cls-40" d="M340.63,395.67h-.08l0,.72h0s0,0,0,0a0,0,0,0,0,0,0Z"/><path class="cls-40" d="M337.89,396.2h-.08l0,.73h0s0,0,0,0a0,0,0,0,0,0,0Z"/><path class="cls-40" d="M335.12,396.73l-.08,0,0,.57h0a0,0,0,1,0,.08,0Z"/><path class="cls-40" d="M332.38,397.27h-.08l0,.57h0s0,0,0,0a0,0,0,0,0,0,0Z"/><path class="cls-40" d="M329.63,397.8h-.07l0,.57h0s0,0,0,0a0,0,0,0,0,0,0Z"/><path class="cls-40" d="M326.89,398.33h-.08l0,.57h0s0,0,0,0a0,0,0,0,0,0,0Z"/><path class="cls-40" d="M324.15,398.86h-.08l0,.57h0a.05.05,0,0,0,.05,0s0,0,0,0Z"/><path class="cls-40" d="M321.41,399.39l-.08,0,0,.56h0s0,0,0,0a0,0,0,0,0,0,0Z"/><path class="cls-40" d="M315.92,400.45l-.08,0,0,.57h0s0,0,0,0a0,0,0,0,0,0,0Z"/><path class="cls-41" d="M351.72,429.4l-1.21-5.1-2.91,4.34Z"/><path class="cls-42" d="M344.6,450.57l2,.38,4-21.74a1.25,1.25,0,0,0-.26-.48,1.15,1.15,0,0,0-.62-.36h-.06a1.18,1.18,0,0,0-.72.12,1.33,1.33,0,0,0-.4.35Z"/><path class="cls-43" d="M350.51,424.3l-1.89,4.53-1-.19Z"/><rect class="cls-44" x="344.59" y="449.52" width="1.75" height="4.2" transform="translate(852.58 194.44) rotate(100.52)"/><rect class="cls-45" x="343.55" y="451.84" width="2.96" height="4.2" rx="1.48" transform="translate(854.34 197.6) rotate(100.52)"/><path class="cls-46" d="M350.51,424.3l.19,4.91,1,.19Z"/><path class="cls-33" d="M344.6,450.57l4-21.74a.57.57,0,0,0-.56-.54.54.54,0,0,0-.48.35l-4,21.74Z"/><path class="cls-47" d="M344.91,450.63l1.41.26,4.11-22.16a1.15,1.15,0,0,0-.62-.36h-.06a1.18,1.18,0,0,0-.72.12Z"/><rect class="cls-48" x="343.04" y="450.81" width="1.75" height="1.06" transform="translate(850.47 195.62) rotate(100.52)"/><rect class="cls-49" x="346.13" y="451.38" width="1.75" height="1.06" transform="translate(854.69 193.26) rotate(100.52)"/><path class="cls-50" d="M342.08,453.12h2.82a.07.07,0,0,1,.07.07v0a1,1,0,0,1-1,1h-1.91a.07.07,0,0,1-.07-.07v-.91a.07.07,0,0,1,.07-.07Z" transform="matrix(-0.18, 0.98, -0.98, -0.18, 852.24, 198.78)"/><path class="cls-51" d="M345.17,453.7h1.91a1,1,0,0,1,1,1v0a.07.07,0,0,1-.07.07h-2.82a.07.07,0,0,1-.07-.07v-.91a.07.07,0,0,1,.07-.07Z" transform="translate(856.46 196.42) rotate(100.52)"/><path class="cls-34" d="M346.65,451l4-21.74a.54.54,0,0,1,1,.19l-4,21.74Z"/><path class="cls-47" d="M350.32,425.32a1.07,1.07,0,0,0,.43,0l-.24-1-.58.88A1.2,1.2,0,0,0,350.32,425.32Z"/><path class="cls-52" d="M330.39,384.27l1.65-3.55,7.5-7.05c-.26-.94-.51-1.87-.76-2.81l-9.31,7.33C329.77,380.22,330.08,382.24,330.39,384.27Z"/><path class="cls-53" d="M338.78,370.86c.25.94.5,1.87.76,2.81l22.34-21Z"/><path class="cls-33" d="M361.88,352.67l-17.22,34.48L332,380.72"/><path class="cls-54" d="M330.39,384.27l4-2.35-2.36-1.2Z"/><path class="cls-33" d="M361.88,352.67l-42.64,22.66,10.23,2.86"/><path class="cls-55" d="M344.66,387.15Q343,379.58,341.31,372L332,380.72l12.62,6.43"/><path class="cls-56" d="M338.78,370.86v0l-19.53,4.49,10.23,2.86,9.31-7.33"/><g id="W_Mark" data-name="W Mark"><path class="cls-36" d="M274.23,430.78a12.73,12.73,0,0,1,7.23-2,13.35,13.35,0,0,1,2.44.31,12.72,12.72,0,0,1,2.33.77,12.33,12.33,0,0,1,2.16,1.21,12.7,12.7,0,0,1,3.51,3.68,12.57,12.57,0,0,1,1.81,4.76,12,12,0,0,1,.16,2.47,12.54,12.54,0,0,1-.31,2.44,12.72,12.72,0,0,1-.77,2.33,12.33,12.33,0,0,1-1.21,2.16,12.86,12.86,0,0,1-3.68,3.52,12.61,12.61,0,0,1-4.75,1.8,12.83,12.83,0,0,1-2.47.17,12.55,12.55,0,0,1-2.44-.32,12.82,12.82,0,0,1-2.34-.77,12.05,12.05,0,0,1-2.16-1.21,12.45,12.45,0,0,1-3.51-3.68,12.69,12.69,0,0,1-2-7.22,12.54,12.54,0,0,1,.31-2.44,12.82,12.82,0,0,1,.77-2.34,13.1,13.1,0,0,1,1.21-2.16,12.83,12.83,0,0,1,3.68-3.51m-.43-.69a13.63,13.63,0,1,0,18.8,4.26,13.62,13.62,0,0,0-18.8-4.26Z"/><path class="cls-36" d="M271.46,447.68a11.37,11.37,0,0,0,10.87,5.23l-12.51-9.67A11.52,11.52,0,0,0,271.46,447.68ZM287.25,437a6.06,6.06,0,0,0-2.47-2.15,5.25,5.25,0,0,1-2.36-1.66,2,2,0,0,1,.54-2.72l.13-.07a11.36,11.36,0,0,0-13.38,11l.63-.37c1-.64,2.48-1.74,2.48-1.74a.47.47,0,0,1,.56.75s-.48.39-1,.79L282.4,449l-1.87-7.64-4.09-3.15c-.53.29-1.06.54-1.06.54a.47.47,0,0,1-.44-.83s1.66-.88,2.61-1.47,2.48-1.74,2.48-1.74a.47.47,0,0,1,.56.75s-.48.39-1,.79l10,8.14-1-3.77A13.32,13.32,0,0,0,287.25,437Zm-5.48,5.31,2.39,10.2a11.26,11.26,0,0,0,5.81-3.88l-.15-.09Zm4.82-10.66a11.16,11.16,0,0,1,.69.95,10.81,10.81,0,0,1,1.44,3.9l2.41,10.34a11.37,11.37,0,0,0-4.54-15.19Z"/></g></g><path class="cls-57" d="M885.58,579.32,666.43,672.66,550.81,401.2,770,307.86,879.89,566Z"/><path class="cls-9" d="M888.21,571.64,669.06,665,553.44,393.52l219.15-93.34,109.92,258.1Z"/><rect class="cls-33" x="603.09" y="349.83" width="213.18" height="213.18" transform="translate(-122.1 314.59) rotate(-23.07)"/><rect class="cls-58" x="642.05" y="400.29" width="131.9" height="108.96" transform="translate(-121.58 313.8) rotate(-23.07)"/><path class="cls-59" d="M678.92,470.91a64.38,64.38,0,0,1,16.67,18.18,65.19,65.19,0,0,1,9.39,34l20.44-9a62.15,62.15,0,0,1-29-54.81"/><path class="cls-60" d="M725.46,514.25,722,515.76a62.1,62.1,0,0,1-27.84-54.07l-14.72,9.7L679,471l17.54-11.55a62.39,62.39,0,0,0,5.46,27.8A63.13,63.13,0,0,0,725.46,514.25Z"/><path class="cls-61" d="M714.18,443.59a18.2,18.2,0,0,1-9.61,23.89,18.88,18.88,0,0,1-4.55,1.28,13,13,0,0,1-24.22,6.89,13,13,0,0,1-18.52-16.13,20.72,20.72,0,0,1,22.55-33.2,13,13,0,0,1,23.42,7.15A18.13,18.13,0,0,1,714.18,443.59Z"/><path class="cls-62" d="M714.14,443.48a18.21,18.21,0,0,1-9.62,23.89,18,18,0,0,1-4.49,1.27A18.21,18.21,0,0,0,694.69,437a9.62,9.62,0,0,0-1-4.58c-2.16-4.22-7.62-6.54-13.83-6.09a12.67,12.67,0,0,1,5.34-4.38,13,13,0,0,1,9.69-.1,13.49,13.49,0,0,1,7.32,7,13,13,0,0,1,1,4.57A18.21,18.21,0,0,1,714.14,443.48Z"/><path class="cls-63" d="M733.13,502.67l36.8-70.81-18.07-42.43q-41.72,70.4-83.41,140.79l64.68-27.55"/><path class="cls-63" d="M653.81,492.22q21.06-45.74,42.13-91.47l-50.32,21.42-12.08,22.46Z"/><path class="cls-63" d="M749.45,494q11.65-25.22,23.3-50.44l2.36,5q-9.93,21.39-19.87,42.77Z"/><rect class="cls-64" x="706.95" y="400.01" width="3.42" height="109.01" transform="translate(-121.43 314.04) rotate(-23.07)"/><rect class="cls-64" x="643.42" y="452.8" width="130.49" height="3.42" transform="translate(-121.43 314.04) rotate(-23.07)"/><path class="cls-65" d="M662.59,506.23h138.9a2.56,2.56,0,0,1,2.56,2.56v2.81a0,0,0,0,1,0,0H660a0,0,0,0,1,0,0v-2.81a2.56,2.56,0,0,1,2.56-2.56Z" transform="translate(-140.88 327.55) rotate(-23.07)"/><path class="cls-66" d="M793.21,480.33l-124.52,53L624.11,428.7l124.52-53ZM671.25,527l115.59-49.23L746.07,382,630.48,431.26Z"/><path class="cls-67" d="M774.72,483.73l-.87-1.09a5.31,5.31,0,0,0,1.87-2.66,6,6,0,0,0-.62-4.58c-.27-.39-.49-.51-.58-.52s-.7.06-1.81,2.46l-1.26-.59c1-2.25,2.12-3.34,3.19-3.25a2.25,2.25,0,0,1,1.6,1.11,7.34,7.34,0,0,1,.81,5.76A6.74,6.74,0,0,1,774.72,483.73Z"/><path class="cls-23" d="M761.06,475.54h13.72a.41.41,0,0,1,.41.41v6.86a7.27,7.27,0,0,1-7.27,7.27h0a7.27,7.27,0,0,1-7.27-7.27V476a.41.41,0,0,1,.41-.41Z" transform="translate(-127.78 339.52) rotate(-23.07)"/><path class="cls-67" d="M771.92,473.65l2.69,6.31a7.27,7.27,0,0,1-9,9.73,7.27,7.27,0,0,0,8-10L771,473.6l.4-.16A.41.41,0,0,1,771.92,473.65Z"/><path class="cls-68" d="M763.31,476.44c3.55-3.87,4.08-5.58,3.59-6.34-.84-1.31-4.58.31-5.9-1.38-.82-1.05-.29-2.89.44-4.5-2.62,3.34-2.84,5-2.32,5.86.92,1.55,4.22.65,5.16,2.34C764.88,473.52,764.16,475.11,763.31,476.44Z"/><circle class="cls-9" cx="767.03" cy="484.81" r="0.34"/><circle class="cls-9" cx="765" cy="482.89" r="0.26"/><circle class="cls-9" cx="770.21" cy="482.84" r="0.26"/><circle class="cls-9" cx="765.51" cy="480.16" r="0.17"/><circle class="cls-9" cx="768.69" cy="480.53" r="0.17"/><circle class="cls-9" cx="768" cy="478.8" r="0.42"/><path class="cls-9" d="M765.5,481.29a1.5,1.5,0,0,1,.26-.58,1.86,1.86,0,0,1,.61-.57,2.5,2.5,0,0,1,1.41-.33l.18,0a.45.45,0,0,1,.37.49.44.44,0,0,1-.48.39,1.56,1.56,0,0,0-.85.15.92.92,0,0,0-.6.78,1.08,1.08,0,0,0,0,.4,1.22,1.22,0,0,0,.53.76.94.94,0,0,0,.8.07,1.65,1.65,0,0,0,.78-.54.44.44,0,0,1,.67,0,.45.45,0,0,1,0,.56,2.32,2.32,0,0,1-.7.66,2.17,2.17,0,0,1-1.28.34,2,2,0,0,1-.77-.22,1.91,1.91,0,0,1-.63-.59A2.3,2.3,0,0,1,765.5,481.29Z"/><path class="cls-9" d="M760.05,364.94a4.85,4.85,0,0,1-7.9,5.31l-134,57.09a4.84,4.84,0,1,1-1.4-3.3l134-57.09a4.85,4.85,0,0,1,9.31-2Z"/><path class="cls-69" d="M648.69,410.42c15.4,44.13,22.75,77.7,22.54,86.53a57.68,57.68,0,0,1-3.4,18c-.77,1.93-1.52,3.42-1.93,4.21q3.35,2.9,6.72,6.08a204.21,204.21,0,0,1,22.28,24.87l-17.66,7.8q-9.09-18.09-18-37.31c-15.52-33.72-28.69-66.43-39.91-97.71Z"/><path class="cls-70" d="M672.62,525.25a205,205,0,0,1,22.28,24.87l-17.66,7.8,0-.08,12-5.28a203.56,203.56,0,0,0-22.28-24.87c-2.25-2.13-4.5-4.16-6.72-6.08.41-.79,1.15-2.28,1.92-4.22a57.26,57.26,0,0,0,3.4-18c.21-8.83-7.13-42.4-22.54-86.53l5.72-2.43c15.4,44.13,22.75,77.69,22.54,86.53a57.68,57.68,0,0,1-3.4,18c-.77,1.93-1.52,3.42-1.93,4.21Q669.25,522.07,672.62,525.25Z"/><path class="cls-69" d="M718,380.9c21.15,41.68,40.26,70.24,46.77,76.21a57.57,57.57,0,0,0,15.35,10c1.92.78,3.52,1.28,4.37,1.53-.15,2.94-.25,6-.27,9.06A204.27,204.27,0,0,0,786.7,511l17.86-7.33q-6.75-19.08-14.46-38.79c-13.56-34.56-28-66.72-42.8-96.48Z"/><path class="cls-70" d="M784.21,477.73A204.27,204.27,0,0,0,786.7,511l17.86-7.33,0-.07-12.12,5a204.39,204.39,0,0,1-2.49-33.3q0-4.64.27-9.06c-.85-.25-2.44-.74-4.37-1.52a57.61,57.61,0,0,1-15.34-10c-6.52-6-25.63-34.53-46.77-76.21L718,380.9c21.15,41.68,40.26,70.24,46.77,76.21a57.57,57.57,0,0,0,15.35,10c1.92.78,3.52,1.28,4.37,1.53Q784.24,473.08,784.21,477.73Z"/><path class="cls-71" d="M659.05,522.26c-.3-.66,7-4.38,7.41-3.78.23.33-1.48,2.13-3.61,3.06C661.31,522.21,659.2,522.59,659.05,522.26Z"/><path class="cls-71" d="M791.05,465.7c-.3-.45-7.53,2.59-7.36,3.09.1.27,2.47-.07,4.47-1C789.61,467.08,791.2,465.92,791.05,465.7Z"/><path class="cls-72" d="M548.1,655.48c-.77,1.6-1.57,3.23-2.36,4.85-.73,1.47-1.47,3-2.22,4.44q-9,17.68-20.7,36.11a2.5,2.5,0,0,1-3.42.77,2.49,2.49,0,0,1-.77-3.42,438.65,438.65,0,0,0,23-40.71c.81-1.63,1.61-3.27,2.37-4.88q1.29-2.71,2.5-5.41c22.43-49.48,28.39-94,17.67-132.7C557.92,492,547.3,475.27,537,459.1c-15.29-24.06-29.72-46.78-30.08-86-.12-14.19,1.69-26.56,3.28-37.48,2.91-19.86,5.2-35.57-4.55-53-5.6-10-14.06-18.5-25.26-25.4a120.05,120.05,0,0,0-26.93-11.94.4.4,0,0,1,0-.76c1.85-.65,3.7-1.3,5.57-1.94a3,3,0,0,1,2,0,114.16,114.16,0,0,1,25.37,12.6c10.25,7,18.15,15.3,23.6,25,10.57,18.88,8,36.13,5.13,56.11-1.58,10.73-3.36,22.91-3.24,36.7.36,37.82,14.42,60,29.31,83.41,10.48,16.48,21.31,33.52,27.73,56.76C580.38,554.73,573.37,602.41,548.1,655.48Z"/><g class="cls-73"><path class="cls-74" d="M596.31,279.41a7.09,7.09,0,0,1-2.09-4.11h0a12.51,12.51,0,0,1,1.67-7.49h0a19,19,0,0,1,5-6h0a8.72,8.72,0,0,1,3.94-1.88h0a4.2,4.2,0,0,1,.79-.05h0a7.61,7.61,0,0,1,4.89,1.65h0c.23.19.44.38.64.58h0c-.07-1.4-.15-3.13-.25-4.92h0c-.22-4.24-.51-8.91-.72-10.32h0a1.4,1.4,0,0,0,0-.25h0a10.32,10.32,0,0,1-.7-2.28h0a2.72,2.72,0,0,1,.12-1.45h0a1.74,1.74,0,0,1,1.37-1h0a3.51,3.51,0,0,1,4,3h0a3.72,3.72,0,0,1,0,1.2h0v0h0s0,.08,0,.14h0c0,.13,0,.31,0,.53h0c0,.45,0,1.06,0,1.8h0c0,1.47.11,3.42.23,5.56h0c.2,3.91.51,8.46.87,11.83h0a4,4,0,0,1,1.22.37h0a2.15,2.15,0,0,1,1,1.06h0a4.11,4.11,0,0,1,.29,1h0a2.21,2.21,0,0,1-.25,1.45h0a2.63,2.63,0,0,1-.9.89h0c-.39.25-.79.44-1.19.65h0a16.45,16.45,0,0,1,.55,2.29h0a5.84,5.84,0,0,1,.06,1.32h0a2.32,2.32,0,0,1-.49,1.37h0a1.69,1.69,0,0,1-1,.59h0l-.24,0h0a3.68,3.68,0,0,1-1.83-.37h0a2.71,2.71,0,0,1-1.11-1.12h0a5.64,5.64,0,0,1-.25-.58h0c-.67.58-1.57,1.32-2.62,2.09h0c-2.27,1.63-5.14,3.41-8,3.84h-.06a5.53,5.53,0,0,1-4.81-1.37Zm4.52-10.88c-1.41,2.19-2.22,4.84-2,6.26h0a1.51,1.51,0,0,0,.52,1h0a1.76,1.76,0,0,0,1.44.3h0a11.7,11.7,0,0,0,4.59-2.41h0c1.58-1.17,3.24-2.61,4.83-3.93h0c-.13-.35-.31-.82-.54-1.32h0a10.66,10.66,0,0,0-2.08-3.24h0a2.65,2.65,0,0,0-1.66-.83h0a2.75,2.75,0,0,0-.4,0h-.07c-1.38.21-3.31,1.91-4.65,4.09Zm23,4a19.92,19.92,0,0,1-3.46-5.83h0a51,51,0,0,1-2.82-9.77h0c0-.13-.06-.26-.08-.39h0a2.8,2.8,0,0,1,.26-1.79h0a1.88,1.88,0,0,1,1.39-.94h0l.39,0h0a2.73,2.73,0,0,1,2.18,1h0a3.15,3.15,0,0,1,.58,1.45h0v0c.05.41.11.82.17,1.21h0a42.07,42.07,0,0,0,1.78,7.72h0a10.28,10.28,0,0,0,2.27,4.08h0a1.33,1.33,0,0,0,1.1.45h0a1.46,1.46,0,0,0,.64-.28h0a5,5,0,0,0,1.74-2.68h0a15.27,15.27,0,0,0,.61-4.05h0a37,37,0,0,0-.43-6.11h0l0-.17h0a3.07,3.07,0,0,1,.13-1.65h0a2.27,2.27,0,0,1,1.9-1.35h0l.16,0h0a2.14,2.14,0,0,1,1.52.38h0a3,3,0,0,1,.81.92h0a5,5,0,0,1,.48,1.21h0l0,.11v.1c0,.58.23,3,.18,5.9h0a25.3,25.3,0,0,1-1.43,8.82h0a6,6,0,0,1-3.71,3.79h0a5.88,5.88,0,0,1-.81.18h0a6.26,6.26,0,0,1-5.53-2.33Zm20.24,1.69a2.69,2.69,0,0,1-.4,0h0a2.75,2.75,0,0,1-2-.8h0a2.53,2.53,0,0,1-.56-1h0l-.27,0h0a2.34,2.34,0,0,1-1.57-.87h0l0,0,0-.05a1.49,1.49,0,0,1-.13-.29h0l0-.13h0c0-.09,0-.2-.08-.32h0c0-.26-.12-.6-.19-1h0c-.15-.85-.34-2-.54-3.33h0a90.34,90.34,0,0,1-.95-9.26h0a3,3,0,0,1-.94-1.49h0v0a.8.8,0,0,1,0-.18h0a2.39,2.39,0,0,1,.46-1.64h0a4.3,4.3,0,0,1,.71-.77h0c0-.14,0-.3,0-.49h0c0-.6.1-1.44.14-2.41h0a37.15,37.15,0,0,0-.22-6.32h0c0-.1,0-.2,0-.3h0a5.14,5.14,0,0,0-.32-.84h0a6.45,6.45,0,0,1-.47-1.48h0a2.22,2.22,0,0,1,.26-1.53h0a2.36,2.36,0,0,1,1.47-1h0l.21-.05h0a2.09,2.09,0,0,1,1.4.34h0a3.82,3.82,0,0,1,1,1h0a7.19,7.19,0,0,1,1.24,3.1h0l.06.33h0a17.35,17.35,0,0,1,.1,4h0c-.07,1.09-.18,2.33-.23,4.05h0a19.32,19.32,0,0,1,5.56,0h0a9.13,9.13,0,0,1,6.43,3.76h0a3.88,3.88,0,0,1,.62,1.62h0a8.06,8.06,0,0,1-.77,4.17h0a25.46,25.46,0,0,1-2.37,4.26h0a74.77,74.77,0,0,1-5.08,6.55h0c-.3.34-.52.61-.55.66h0v0a3.43,3.43,0,0,0-.36.61h0a2.22,2.22,0,0,1-.59.82h0a1.69,1.69,0,0,1-.83.36h0Zm-1.83-11.43a49.86,49.86,0,0,0,1.11,5.5h0c.41-.44.9-1,1.42-1.55h0a32.68,32.68,0,0,0,4.22-5.82h0a5.78,5.78,0,0,0,.88-3.16h0a1.25,1.25,0,0,0-.21-.58h0a4,4,0,0,0-2.53-1.15h0a14,14,0,0,0-4.29,0h0c-.3,0-.6.1-.89.16h0c0,.33,0,.76,0,1.25h0a38.44,38.44,0,0,0,.19,4.37h0c0,.34.09.67.13,1ZM661.16,273a3.14,3.14,0,0,1-1.77-.35h0a1.92,1.92,0,0,1-.9-1h0a7.61,7.61,0,0,1-.43-1.3h0c-.26-1-.5-2.32-.73-3.86h0c-.88-5.95-1.57-15.24-2-20.64h0c-.2-2.74-.41-5.07-.54-6.9h0a20.25,20.25,0,0,1-.06-4h0a2.05,2.05,0,0,1,.35-.87h0v0h0a2.53,2.53,0,0,1,1.58-1h0a3.07,3.07,0,0,1,2.28.77h0a2.37,2.37,0,0,1,.69.86h0a3.77,3.77,0,0,1,.32,1.14h0c.14,1,.15,2.37.2,4.8h0c.05,2.41.12,5.85.35,10.83h0c.18,3.88.56,7.81,1.06,11.21h0a58,58,0,0,0,1.09,5.73h0v0c0,.21.09.48.14.78h0a8.42,8.42,0,0,1,.09,1.46h0a2.94,2.94,0,0,1-.53,1.64h0a1.9,1.9,0,0,1-1.2.71h0Zm7.16-4.38.32-1-.32,1A7.14,7.14,0,0,1,665,266h0a10.73,10.73,0,0,1-2-4.77h0a10.63,10.63,0,0,1,.22-4.13h0a23.48,23.48,0,0,1,3.07-7.49h0a7.27,7.27,0,0,1,4.15-3.17h0l.4-.08h0a7.29,7.29,0,0,1,4.57,1h0a9.46,9.46,0,0,1,4.12,5.46h0a13,13,0,0,1,.46,2h0a12.32,12.32,0,0,1-2.68,9.49h0a11.66,11.66,0,0,1-6.85,4.4h0a4.89,4.89,0,0,1-2.19-.13ZM672,251.19a2.12,2.12,0,0,0-.32.17h0a5.43,5.43,0,0,0-1.2,1h0c-1,1.08-2.14,3.06-2.75,6.72h0a4.44,4.44,0,0,0,0,1.41h0a6.06,6.06,0,0,0,.87,2.4h0A2.2,2.2,0,0,0,670,264h0a1.1,1.1,0,0,0,.41,0h0a5.52,5.52,0,0,0,2.68-1.76h0a8.3,8.3,0,0,0,1.82-2.83h0v0a10,10,0,0,0,.56-4.48h0a5.86,5.86,0,0,0-1-2.47h0a3.44,3.44,0,0,0-1-1.17h0a2.12,2.12,0,0,0-.91-.28h0l-.49.15h0l-.07,0Zm-.31-.21,0-.81,0,.81Zm-95.16,20.89a17.94,17.94,0,0,1,2.59-4.1,20.55,20.55,0,0,1,7.94-5.21l1.5-.08a6.48,6.48,0,0,1,3.55,1.09c1,.69,1.45,1.93,1.32,3.71a6.57,6.57,0,0,1-2.58,4.63,14.89,14.89,0,0,1-5.38,2.84c-2,.59-3.08,1.12-3.22,1.58s.18,1,1,1.5,2.63.88,5.46,1a23.48,23.48,0,0,0,6.9-.52,25.85,25.85,0,0,0,4.35-1.52c1.11-.54,2.53.5,3.17.32s1.14.15,1.55,1c-1.12,1.63-2.91,1.43-4.26,2.21a24.94,24.94,0,0,1-5.06,2.12,31,31,0,0,1-7.43,1.19h-1.77a21.83,21.83,0,0,1-6.46-1.22,7.7,7.7,0,0,1-2.61-1.92,7.31,7.31,0,0,1-1.35-3.35A13,13,0,0,1,576.51,271.87Zm4.93.88a16.61,16.61,0,0,0,5.31-2.55c.89-.8,1.26-1.53,1.13-2.18s-.88-.63-2.23.08a7.57,7.57,0,0,0-2.76,2.17A21.67,21.67,0,0,0,581.44,272.75Z"/><path class="cls-74" d="M675.41,285.77A21.48,21.48,0,0,1,664,282.13h0a1.77,1.77,0,0,1-.76-1.15h0a1.08,1.08,0,0,1,0-.31h0a2.48,2.48,0,0,1,.51-1.45h0a2.57,2.57,0,0,1,1.3-.88h0l.27-.07h0a2,2,0,0,1,1.46.37h0a13.43,13.43,0,0,0,3.23,1.52h0a24,24,0,0,0,3.63.9h0a24.28,24.28,0,0,0,5.52.23h0c.6,0,1.2-.11,1.79-.2h0a21.05,21.05,0,0,0,3.58-.89h0a21.73,21.73,0,0,0,4.42-2.1h0a10.54,10.54,0,0,0,4-6h0a28.48,28.48,0,0,0,.15-9h0c-.24.46-.51.91-.79,1.34h0a10.87,10.87,0,0,1-1.73,2h0a7.85,7.85,0,0,1-2.85,1.66h0a5.29,5.29,0,0,1-.54.13h0a3.31,3.31,0,0,1-1.46-.11h0a5,5,0,0,1-1.64-.84h0a7.35,7.35,0,0,1-2.68-4.5h0c0-.17-.07-.35-.1-.52h0a12.7,12.7,0,0,1,.28-5.11h0a31.58,31.58,0,0,1,1.9-5.4h0c.19-.42.55-1.1,1.11-2.07h0a21.67,21.67,0,0,1,2.06-3h0a14.08,14.08,0,0,1,2.75-2.55h0a4.84,4.84,0,0,1,2.09-.89h0a4.09,4.09,0,0,1,1.21,0h0a1.8,1.8,0,0,1,.7.22h0a.81.81,0,0,1,.39.54h0v.13h0a2.13,2.13,0,0,1-.39,1.12h0l.17,0h0a4.11,4.11,0,0,1,.72,0h0A2.14,2.14,0,0,1,696.6,247h0l0,.19h0c.25,3,.5,6,.76,8.95h0c.25,3,.35,6,.43,9h0a33.42,33.42,0,0,1-.47,7.66h0a14.8,14.8,0,0,1-1.07,3.37h0a13.69,13.69,0,0,1-3.58,4.5h0a20.61,20.61,0,0,1-5.12,3.11h0a25.94,25.94,0,0,1-6,1.71h0a31,31,0,0,1-6.14.3Zm15.8-38a10.57,10.57,0,0,0-.81,1.15h0c-.26.44-.54.91-.84,1.39h0a14.71,14.71,0,0,0-1.31,2.73h0c-.32.91-.62,1.85-.92,2.8h0a13.48,13.48,0,0,0-.87,5.75h0v.05h0a5.62,5.62,0,0,0,.42,1.53h0c.15.3.28.4.37.42h0l.07-.05h0a1.64,1.64,0,0,0,.23-.26h0a7.55,7.55,0,0,0,.68-1.15h0a27.77,27.77,0,0,0,1.73-4.86h0a40.48,40.48,0,0,0,1-5.06h0c.23-1.67.47-3.34.7-5h0l-.49.57Z"/><path class="cls-74" d="M703.92,265.38a11.15,11.15,0,0,1-4-2.78h0a1.61,1.61,0,0,1-.44-.88h0a1.57,1.57,0,0,1,0-.68h0a2.9,2.9,0,0,1,.75-1.41h0a2.79,2.79,0,0,1,1.34-.81h0l.18,0h0a1.52,1.52,0,0,1,1.36.48h0a7.78,7.78,0,0,0,2.42,1.67h0a1.76,1.76,0,0,0,1,.17h0a1.41,1.41,0,0,0,.94-.7h0a.24.24,0,0,0,0-.09h0c0-.06,0-.15.07-.24h0a2.87,2.87,0,0,0,0-1.07h0V259h0a4.61,4.61,0,0,0-.62-1.57h0a5.49,5.49,0,0,0-1.85-1.73h0a16.9,16.9,0,0,0-1.51-.82h0a6,6,0,0,1-1.54-1h0a5.14,5.14,0,0,1-1.68-3.07h0a7.4,7.4,0,0,1-.07-1.07h0a6.91,6.91,0,0,1,2-4.84h0a12,12,0,0,1,4.3-2.94h0a2.42,2.42,0,0,1,.36-.1h0a1.39,1.39,0,0,1,1.12.32h0a1.6,1.6,0,0,1,.59,1h0c0,.11,0,.22,0,.33h0a2.8,2.8,0,0,1-1.44,2.36h0a7.55,7.55,0,0,0-1.18,1h0A5.78,5.78,0,0,0,705,248.1h0a2.55,2.55,0,0,0-.35,1.37h0s0,.07,0,.1h0a1.44,1.44,0,0,0,.77,1h0a18.81,18.81,0,0,0,1.69,1h0a7.92,7.92,0,0,1,1.72,1.17h0a17,17,0,0,1,1.87,2h0a6.53,6.53,0,0,1,1.26,2.49h0c.08.29.14.59.19.88h0a8,8,0,0,1-.29,3.69h0a5.63,5.63,0,0,1-3,3.42h0a6.2,6.2,0,0,1-1.88.62h0a5.66,5.66,0,0,1-3-.37Zm3.83-4.94,0-.28,0,.28Zm-.14-.09-.1-.08.1.08Z"/><path class="cls-74" d="M694.87,235.44c.27-.56.56-1.09,1.31-1.11a1.13,1.13,0,0,1,1.19,1,2.36,2.36,0,0,1-.28,1.08l-1.48,3.23c-.27.55-.57,1.08-1.31,1.11a1.13,1.13,0,0,1-1.19-1.05,2.24,2.24,0,0,1,.28-1.08Z"/><path class="cls-74" d="M688,235.94a1.5,1.5,0,0,1,.37-1.68,1.12,1.12,0,0,1,1.58.12,2.43,2.43,0,0,1,.43,1l.75,3.48a1.52,1.52,0,0,1-.37,1.68,1.12,1.12,0,0,1-1.58-.12,2.31,2.31,0,0,1-.43-1Z"/><path class="cls-74" d="M682.66,238.68a1.52,1.52,0,0,1-.31-1.7,1.12,1.12,0,0,1,1.5-.5,2.09,2.09,0,0,1,.79.77l2.05,2.91a1.53,1.53,0,0,1,.31,1.7,1.13,1.13,0,0,1-1.5.51,2.3,2.3,0,0,1-.79-.78Z"/><path class="cls-74" d="M683.2,243.23c.57.24,1.11.51,1.18,1.26a1.12,1.12,0,0,1-1,1.24,2.25,2.25,0,0,1-1.08-.23L679,244.16c-.57-.25-1.11-.52-1.17-1.27a1.13,1.13,0,0,1,1-1.24,2.35,2.35,0,0,1,1.08.23Z"/><path class="cls-74" d="M700.08,238.58a1.52,1.52,0,0,1,1.64-.49,1.14,1.14,0,0,1,.67,1.45,2.27,2.27,0,0,1-.69.87L699,242.76c-.47.4-.95.77-1.64.49a1.14,1.14,0,0,1-.67-1.44,2.31,2.31,0,0,1,.69-.88Z"/></g><path class="cls-10" d="M595.31,278.41a7.09,7.09,0,0,1-2.09-4.11h0a12.51,12.51,0,0,1,1.67-7.49h0a19,19,0,0,1,5-6h0a8.72,8.72,0,0,1,3.94-1.88h0a4.2,4.2,0,0,1,.79-.05h0a7.61,7.61,0,0,1,4.89,1.65h0c.23.19.44.38.64.58h0c-.07-1.4-.15-3.13-.25-4.92h0c-.22-4.24-.51-8.91-.72-10.32h0a1.4,1.4,0,0,0,0-.25h0a10.32,10.32,0,0,1-.7-2.28h0a2.72,2.72,0,0,1,.12-1.45h0a1.74,1.74,0,0,1,1.37-1h0a3.51,3.51,0,0,1,4,3h0a3.72,3.72,0,0,1,0,1.2h0v0h0s0,.08,0,.14h0c0,.13,0,.31,0,.53h0c0,.45,0,1.06,0,1.8h0c0,1.47.11,3.42.23,5.56h0c.2,3.91.51,8.46.87,11.83h0a4,4,0,0,1,1.22.37h0a2.15,2.15,0,0,1,1,1.06h0a4.11,4.11,0,0,1,.29,1h0a2.21,2.21,0,0,1-.25,1.45h0a2.63,2.63,0,0,1-.9.89h0c-.39.25-.79.44-1.19.65h0a16.45,16.45,0,0,1,.55,2.29h0a5.84,5.84,0,0,1,.06,1.32h0a2.32,2.32,0,0,1-.49,1.37h0a1.69,1.69,0,0,1-1,.59h0l-.24,0h0a3.68,3.68,0,0,1-1.83-.37h0a2.71,2.71,0,0,1-1.11-1.12h0a5.64,5.64,0,0,1-.25-.58h0c-.67.58-1.57,1.32-2.62,2.09h0c-2.27,1.63-5.14,3.41-8,3.84h-.06a5.53,5.53,0,0,1-4.81-1.37Zm4.52-10.88c-1.41,2.19-2.22,4.84-2,6.26h0a1.51,1.51,0,0,0,.52,1h0a1.76,1.76,0,0,0,1.44.3h0a11.7,11.7,0,0,0,4.59-2.41h0c1.58-1.17,3.24-2.61,4.83-3.93h0c-.13-.35-.31-.82-.54-1.32h0a10.66,10.66,0,0,0-2.08-3.24h0a2.65,2.65,0,0,0-1.66-.83h0a2.75,2.75,0,0,0-.4,0h-.07c-1.38.21-3.31,1.91-4.65,4.09Zm23,4a19.92,19.92,0,0,1-3.46-5.83h0a51,51,0,0,1-2.82-9.77h0c0-.13-.06-.26-.08-.39h0a2.8,2.8,0,0,1,.26-1.79h0a1.88,1.88,0,0,1,1.39-.94h0l.39,0h0a2.73,2.73,0,0,1,2.18,1h0a3.15,3.15,0,0,1,.58,1.45h0v0c.05.41.11.82.17,1.21h0a42.07,42.07,0,0,0,1.78,7.72h0a10.28,10.28,0,0,0,2.27,4.08h0a1.33,1.33,0,0,0,1.1.45h0a1.46,1.46,0,0,0,.64-.28h0a5,5,0,0,0,1.74-2.68h0a15.27,15.27,0,0,0,.61-4.05h0a37,37,0,0,0-.43-6.11h0l0-.17h0a3.07,3.07,0,0,1,.13-1.65h0a2.27,2.27,0,0,1,1.9-1.35h0l.16,0h0a2.14,2.14,0,0,1,1.52.38h0a3,3,0,0,1,.81.92h0a5,5,0,0,1,.48,1.21h0l0,.11v.1c0,.58.23,3,.18,5.9h0a25.3,25.3,0,0,1-1.43,8.82h0a6,6,0,0,1-3.71,3.79h0a5.88,5.88,0,0,1-.81.18h0a6.26,6.26,0,0,1-5.53-2.33Zm20.24,1.69a2.69,2.69,0,0,1-.4,0h0a2.75,2.75,0,0,1-2-.8h0a2.53,2.53,0,0,1-.56-1h0l-.27,0h0a2.34,2.34,0,0,1-1.57-.87h0l0,0,0-.05a1.49,1.49,0,0,1-.13-.29h0l0-.13h0c0-.09,0-.2-.08-.32h0c0-.26-.12-.6-.19-1h0c-.15-.85-.34-2-.54-3.33h0a90.34,90.34,0,0,1-.95-9.26h0a3,3,0,0,1-.94-1.49h0v0a.8.8,0,0,1,0-.18h0a2.39,2.39,0,0,1,.46-1.64h0a4.3,4.3,0,0,1,.71-.77h0c0-.14,0-.3,0-.49h0c0-.6.1-1.44.14-2.41h0a37.15,37.15,0,0,0-.22-6.32h0c0-.1,0-.2,0-.3h0a5.14,5.14,0,0,0-.32-.84h0a6.45,6.45,0,0,1-.47-1.48h0a2.22,2.22,0,0,1,.26-1.53h0a2.36,2.36,0,0,1,1.47-1h0l.21-.05h0a2.09,2.09,0,0,1,1.4.34h0a3.82,3.82,0,0,1,1,1h0a7.19,7.19,0,0,1,1.24,3.1h0l.06.33h0a17.35,17.35,0,0,1,.1,4h0c-.07,1.09-.18,2.33-.23,4.05h0a19.32,19.32,0,0,1,5.56,0h0a9.13,9.13,0,0,1,6.43,3.76h0a3.88,3.88,0,0,1,.62,1.62h0a8.06,8.06,0,0,1-.77,4.17h0a25.46,25.46,0,0,1-2.37,4.26h0a74.77,74.77,0,0,1-5.08,6.55h0c-.3.34-.52.61-.55.66h0v0a3.43,3.43,0,0,0-.36.61h0a2.22,2.22,0,0,1-.59.82h0a1.69,1.69,0,0,1-.83.36h0Zm-1.83-11.43a49.86,49.86,0,0,0,1.11,5.5h0c.41-.44.9-1,1.42-1.55h0a32.68,32.68,0,0,0,4.22-5.82h0a5.78,5.78,0,0,0,.88-3.16h0a1.25,1.25,0,0,0-.21-.58h0a4,4,0,0,0-2.53-1.15h0a14,14,0,0,0-4.29,0h0c-.3,0-.6.1-.89.16h0c0,.33,0,.76,0,1.25h0a38.44,38.44,0,0,0,.19,4.37h0c0,.34.09.67.13,1ZM660.16,272a3.14,3.14,0,0,1-1.77-.35h0a1.92,1.92,0,0,1-.9-1h0a7.61,7.61,0,0,1-.43-1.3h0c-.26-1-.5-2.32-.73-3.86h0c-.88-5.95-1.57-15.24-2-20.64h0c-.2-2.74-.41-5.07-.54-6.9h0a20.25,20.25,0,0,1-.06-4h0a2.05,2.05,0,0,1,.35-.87h0v0h0a2.53,2.53,0,0,1,1.58-1h0a3.07,3.07,0,0,1,2.28.77h0a2.37,2.37,0,0,1,.69.86h0a3.77,3.77,0,0,1,.32,1.14h0c.14,1,.15,2.37.2,4.8h0c.05,2.41.12,5.85.35,10.83h0c.18,3.88.56,7.81,1.06,11.21h0a58,58,0,0,0,1.09,5.73h0v0c0,.21.09.48.14.78h0a8.42,8.42,0,0,1,.09,1.46h0a2.94,2.94,0,0,1-.53,1.64h0a1.9,1.9,0,0,1-1.2.71h0Zm7.16-4.38.32-1-.32,1A7.14,7.14,0,0,1,664,265h0a10.73,10.73,0,0,1-2-4.77h0a10.63,10.63,0,0,1,.22-4.13h0a23.48,23.48,0,0,1,3.07-7.49h0a7.27,7.27,0,0,1,4.15-3.17h0l.4-.08h0a7.29,7.29,0,0,1,4.57,1h0a9.46,9.46,0,0,1,4.12,5.46h0a13,13,0,0,1,.46,2h0a12.32,12.32,0,0,1-2.68,9.49h0a11.66,11.66,0,0,1-6.85,4.4h0a4.89,4.89,0,0,1-2.19-.13ZM671,250.19a2.12,2.12,0,0,0-.32.17h0a5.43,5.43,0,0,0-1.2,1h0c-1,1.08-2.14,3.06-2.75,6.72h0a4.44,4.44,0,0,0,0,1.41h0a6.06,6.06,0,0,0,.87,2.4h0A2.2,2.2,0,0,0,669,263h0a1.1,1.1,0,0,0,.41,0h0a5.52,5.52,0,0,0,2.68-1.76h0a8.3,8.3,0,0,0,1.82-2.83h0v0a10,10,0,0,0,.56-4.48h0a5.86,5.86,0,0,0-1-2.47h0a3.44,3.44,0,0,0-1-1.17h0a2.12,2.12,0,0,0-.91-.28h0l-.49.15h0l-.07,0Zm-.31-.21,0-.81,0,.81Zm-95.16,20.89a17.94,17.94,0,0,1,2.59-4.1,20.55,20.55,0,0,1,7.94-5.21l1.5-.08a6.48,6.48,0,0,1,3.55,1.09c1,.69,1.45,1.93,1.32,3.71a6.57,6.57,0,0,1-2.58,4.63,14.89,14.89,0,0,1-5.38,2.84c-2,.59-3.08,1.12-3.22,1.58s.18,1,1,1.5,2.63.88,5.46,1a23.48,23.48,0,0,0,6.9-.52,25.85,25.85,0,0,0,4.35-1.52c1.11-.54,2.53.5,3.17.32s1.14.15,1.55,1c-1.12,1.63-2.91,1.43-4.26,2.21a24.94,24.94,0,0,1-5.06,2.12,31,31,0,0,1-7.43,1.19h-1.77a21.83,21.83,0,0,1-6.46-1.22,7.7,7.7,0,0,1-2.61-1.92,7.31,7.31,0,0,1-1.35-3.35A13,13,0,0,1,575.51,270.87Zm4.93.88a16.61,16.61,0,0,0,5.31-2.55c.89-.8,1.26-1.53,1.13-2.18s-.88-.63-2.23.08a7.57,7.57,0,0,0-2.76,2.17A21.67,21.67,0,0,0,580.44,271.75Z"/><path class="cls-10" d="M674.41,284.77A21.48,21.48,0,0,1,663,281.13h0a1.77,1.77,0,0,1-.76-1.15h0a1.08,1.08,0,0,1,0-.31h0a2.48,2.48,0,0,1,.51-1.45h0a2.57,2.57,0,0,1,1.3-.88h0l.27-.07h0a2,2,0,0,1,1.46.37h0a13.43,13.43,0,0,0,3.23,1.52h0a24,24,0,0,0,3.63.9h0a24.28,24.28,0,0,0,5.52.23h0c.6,0,1.2-.11,1.79-.2h0a21.05,21.05,0,0,0,3.58-.89h0a21.73,21.73,0,0,0,4.42-2.1h0a10.54,10.54,0,0,0,4-6h0a28.48,28.48,0,0,0,.15-9h0c-.24.46-.51.91-.79,1.34h0a10.87,10.87,0,0,1-1.73,2h0a7.85,7.85,0,0,1-2.85,1.66h0a5.29,5.29,0,0,1-.54.13h0a3.31,3.31,0,0,1-1.46-.11h0a5,5,0,0,1-1.64-.84h0a7.35,7.35,0,0,1-2.68-4.5h0c0-.17-.07-.35-.1-.52h0a12.7,12.7,0,0,1,.28-5.11h0a31.58,31.58,0,0,1,1.9-5.4h0c.19-.42.55-1.1,1.11-2.07h0a21.67,21.67,0,0,1,2.06-3h0a14.08,14.08,0,0,1,2.75-2.55h0a4.84,4.84,0,0,1,2.09-.89h0a4.09,4.09,0,0,1,1.21,0h0a1.8,1.8,0,0,1,.7.22h0a.81.81,0,0,1,.39.54h0v.13h0a2.13,2.13,0,0,1-.39,1.12h0l.17,0h0a4.11,4.11,0,0,1,.72,0h0A2.14,2.14,0,0,1,695.6,246h0l0,.19h0c.25,3,.5,6,.76,8.95h0c.25,3,.35,6,.43,9h0a33.42,33.42,0,0,1-.47,7.66h0a14.8,14.8,0,0,1-1.07,3.37h0a13.69,13.69,0,0,1-3.58,4.5h0a20.61,20.61,0,0,1-5.12,3.11h0a25.94,25.94,0,0,1-6,1.71h0a31,31,0,0,1-6.14.3Zm15.8-38a10.57,10.57,0,0,0-.81,1.15h0c-.26.44-.54.91-.84,1.39h0a14.71,14.71,0,0,0-1.31,2.73h0c-.32.91-.62,1.85-.92,2.8h0a13.48,13.48,0,0,0-.87,5.75h0v.05h0a5.62,5.62,0,0,0,.42,1.53h0c.15.3.28.4.37.42h0l.07-.05h0a1.64,1.64,0,0,0,.23-.26h0a7.55,7.55,0,0,0,.68-1.15h0a27.77,27.77,0,0,0,1.73-4.86h0a40.48,40.48,0,0,0,1-5.06h0c.23-1.67.47-3.34.7-5h0l-.49.57Z"/><path class="cls-10" d="M702.92,264.38a11.15,11.15,0,0,1-4-2.78h0a1.61,1.61,0,0,1-.44-.88h0a1.57,1.57,0,0,1,0-.68h0a2.9,2.9,0,0,1,.75-1.41h0a2.79,2.79,0,0,1,1.34-.81h0l.18,0h0a1.52,1.52,0,0,1,1.36.48h0a7.78,7.78,0,0,0,2.42,1.67h0a1.76,1.76,0,0,0,1,.17h0a1.41,1.41,0,0,0,.94-.7h0a.24.24,0,0,0,0-.09h0c0-.06,0-.15.07-.24h0a2.87,2.87,0,0,0,0-1.07h0V258h0a4.61,4.61,0,0,0-.62-1.57h0a5.49,5.49,0,0,0-1.85-1.73h0a16.9,16.9,0,0,0-1.51-.82h0a6,6,0,0,1-1.54-1h0a5.14,5.14,0,0,1-1.68-3.07h0a7.4,7.4,0,0,1-.07-1.07h0a6.91,6.91,0,0,1,2-4.84h0a12,12,0,0,1,4.3-2.94h0a2.42,2.42,0,0,1,.36-.1h0a1.39,1.39,0,0,1,1.12.32h0a1.6,1.6,0,0,1,.59,1h0c0,.11,0,.22,0,.33h0a2.8,2.8,0,0,1-1.44,2.36h0a7.55,7.55,0,0,0-1.18,1h0A5.78,5.78,0,0,0,704,247.1h0a2.55,2.55,0,0,0-.35,1.37h0s0,.07,0,.1h0a1.44,1.44,0,0,0,.77,1h0a18.81,18.81,0,0,0,1.69,1h0a7.92,7.92,0,0,1,1.72,1.17h0a17,17,0,0,1,1.87,2h0a6.53,6.53,0,0,1,1.26,2.49h0c.08.29.14.59.19.88h0a8,8,0,0,1-.29,3.69h0a5.63,5.63,0,0,1-3,3.42h0a6.2,6.2,0,0,1-1.88.62h0a5.66,5.66,0,0,1-3-.37Zm3.83-4.94,0-.28,0,.28Zm-.14-.09-.1-.08.1.08Z"/><path class="cls-10" d="M693.87,234.44c.27-.56.56-1.09,1.31-1.11a1.13,1.13,0,0,1,1.19,1,2.36,2.36,0,0,1-.28,1.08l-1.48,3.23c-.27.55-.57,1.08-1.31,1.11a1.13,1.13,0,0,1-1.19-1.05,2.24,2.24,0,0,1,.28-1.08Z"/><path class="cls-10" d="M687,234.94a1.5,1.5,0,0,1,.37-1.68,1.12,1.12,0,0,1,1.58.12,2.43,2.43,0,0,1,.43,1l.75,3.48a1.52,1.52,0,0,1-.37,1.68,1.12,1.12,0,0,1-1.58-.12,2.31,2.31,0,0,1-.43-1Z"/><path class="cls-10" d="M681.66,237.68a1.52,1.52,0,0,1-.31-1.7,1.12,1.12,0,0,1,1.5-.5,2.09,2.09,0,0,1,.79.77l2.05,2.91a1.53,1.53,0,0,1,.31,1.7,1.13,1.13,0,0,1-1.5.51,2.3,2.3,0,0,1-.79-.78Z"/><path class="cls-10" d="M682.2,242.23c.57.24,1.11.51,1.18,1.26a1.12,1.12,0,0,1-1,1.24,2.25,2.25,0,0,1-1.08-.23L678,243.16c-.57-.25-1.11-.52-1.17-1.27a1.13,1.13,0,0,1,1-1.24,2.35,2.35,0,0,1,1.08.23Z"/><path class="cls-10" d="M699.08,237.58a1.52,1.52,0,0,1,1.64-.49,1.14,1.14,0,0,1,.67,1.45,2.27,2.27,0,0,1-.69.87L698,241.76c-.47.4-.95.77-1.64.49a1.14,1.14,0,0,1-.67-1.44,2.31,2.31,0,0,1,.69-.88Z"/></g></g></svg>